<?xml version="1.0" encoding="utf-8"?>
<!-- Generator: Adobe Illustrator 27.9.0, SVG Export Plug-In . SVG Version: 6.00 Build 0)  -->
<svg version="1.1" xmlns="http://www.w3.org/2000/svg" xmlns:xlink="http://www.w3.org/1999/xlink" x="0px" y="0px"
	 viewBox="0 0 500 500" style="enable-background:new 0 0 500 500;" xml:space="preserve">
<style type="text/css">
	.st0{fill:none;}
	.st1{fill:#EEEEEE;}
	.st2{fill:#E3ABBF;}
	.st3{fill:#F8E970;}
	.st4{fill:#97B6EB;}
	.st5{fill:#E89F9F;}
	.st6{fill:none;stroke:#F4D9E9;stroke-miterlimit:10;}
	.st7{fill:none;stroke:#111010;stroke-width:0.75;stroke-miterlimit:10;}
	.st8{fill:#FFE9C5;}
	.st9{fill:#FFFFFF;}
	.st10{fill:#DEAEC5;}
	.st11{fill:none;stroke:#DEAEC5;stroke-miterlimit:10;}
	.st12{fill:#E8A3A2;}
	.st13{fill:#F0C441;}
	.st14{fill:none;stroke:#EDCACA;stroke-miterlimit:10;}
	.st15{fill:#4B5A8F;}
	.st16{fill:none;stroke:#E4E8F4;stroke-miterlimit:10;}
	.st17{fill:#A2DFD9;}
	.st18{fill:#A8BEFD;}
	.st19{fill:#B26964;}
	.st20{fill:#A55751;}
	.st21{fill:#DFE0CA;}
	.st22{fill:#EAC268;}
	.st23{fill:#D7B259;}
	.st24{fill:#C3867F;}
	.st25{opacity:0.26;fill:#BF615C;}
	.st26{fill:none;stroke:#0A0200;stroke-miterlimit:10;}
	.st27{fill:none;stroke:#77312F;stroke-miterlimit:10;}
	.st28{fill:#111010;}
	.st29{fill:#B26964;stroke:#A55751;stroke-miterlimit:10;}
	.st30{fill:#C3867F;stroke:#A55751;stroke-miterlimit:10;}
	.st31{fill:none;stroke:#A55751;stroke-miterlimit:10;}
	.st32{fill:none;stroke:#D7B259;stroke-width:2;stroke-miterlimit:10;}
	.st33{fill:url(#SVGID_1_);}
	.st34{fill:#3A3341;}
	.st35{fill:none;stroke:#FBBB13;stroke-width:0.75;stroke-miterlimit:10;}
</style>
<g id="BACKGROUND">
	<rect class="st0" width="500" height="500"/>
</g>
<g id="OBJECTS">
	<g>
		<path class="st1" d="M466.16,301.71H350.78c-3.93,0-7.12-3.19-7.12-7.12V142.92c0-3.93,3.19-7.12,7.12-7.12h115.38
			c3.93,0,7.12,3.19,7.12,7.12v151.67C473.28,298.52,470.1,301.71,466.16,301.71z"/>
		<rect x="354.74" y="143.13" class="st2" width="83.83" height="5.23"/>
		<circle class="st3" cx="381.06" cy="177.49" r="18.11"/>
		<path class="st4" d="M405.18,194.09v-27.53c0-0.55,0.44-0.99,0.99-0.99h48.17c0.55,0,0.99,0.44,0.99,0.99v18.81
			c0,0.55-0.44,0.99-0.99,0.99h-41.06c-0.32,0-0.63,0.16-0.81,0.42l-5.49,7.88C406.43,195.45,405.18,195.06,405.18,194.09z"/>
		<path class="st4" d="M365.38,270.3v-25.73c0-1.86,1.51-3.36,3.36-3.36h58.15c1.86,0,3.36,1.51,3.36,3.36v14.06
			c0,1.86-1.51,3.36-3.36,3.36h-53.5c-0.27,0-0.51,0.13-0.67,0.35l-5.87,8.42C366.4,271.41,365.38,271.09,365.38,270.3z"/>
		<path class="st4" d="M455.33,232.52v-27.53c0-0.55-0.44-0.99-0.99-0.99h-86.3c-1.47,0-2.67,1.19-2.67,2.67v15.45
			c0,1.47,1.19,2.67,2.67,2.67h79.18c0.32,0,0.63,0.16,0.81,0.42l5.49,7.88C454.09,233.88,455.33,233.49,455.33,232.52z"/>
		<rect x="327.58" y="172.86" class="st5" width="46.95" height="60.65"/>
		<g>
			<line class="st6" x1="334.11" y1="183.18" x2="368" y2="183.18"/>
			<line class="st6" x1="334.11" y1="191.49" x2="368" y2="191.49"/>
			<line class="st6" x1="334.11" y1="199.8" x2="368" y2="199.8"/>
		</g>
		<g>
			<g>
				<line class="st7" x1="462.54" y1="142.12" x2="468.05" y2="147.63"/>
				<line class="st7" x1="462.54" y1="147.63" x2="468.05" y2="142.12"/>
			</g>
			<rect x="453.93" y="142.26" class="st7" width="5.23" height="5.23"/>
			<line class="st7" x1="450.88" y1="143.34" x2="447.39" y2="143.34"/>
		</g>
	</g>
	<rect y="393.97" class="st8" width="500" height="107.27"/>
	<g>
		<path class="st3" d="M139.2,77.09H68.54c-1.39,0-2.51-1.12-2.51-2.51V27.96c0-1.39,1.12-2.51,2.51-2.51h70.66
			c1.38,0,2.51,1.12,2.51,2.51v46.62C141.71,75.97,140.59,77.09,139.2,77.09z"/>
		<path class="st9" d="M119.83,50.4L89.03,38.1c-0.62-0.25-1.28,0.21-1.28,0.87v24.61c0,0.66,0.67,1.12,1.28,0.87l30.79-12.31
			C120.61,51.83,120.61,50.72,119.83,50.4z"/>
	</g>
	<g>
		<path class="st10" d="M290.66,234.24v-9.36h-1.85v9.36c-1.59,0.41-2.77,1.84-2.77,3.56c0,2.04,1.65,3.69,3.69,3.69
			c2.04,0,3.69-1.65,3.69-3.69C293.43,236.08,292.25,234.65,290.66,234.24z"/>
		<path class="st10" d="M310.24,222.4c0.35-0.52,0.17-1.22-0.37-1.54c-0.97-0.58-2.6-1.76-4.42-3.89
			c-2.91-3.4-1.46-13.36-4.98-21.38c-2.84-6.47-8.19-5.96-10.74-5.96c-2.53,0-7.89-0.51-10.74,5.96
			c-3.52,8.02-2.06,17.98-4.98,21.38c-1.82,2.13-3.45,3.3-4.42,3.89c-0.54,0.32-0.71,1.02-0.37,1.54c1.41,2.15,6.05,6.85,19.69,7.19
			l0,0.02c0.28,0,0.53-0.01,0.8-0.01c0.27,0,0.53,0.01,0.8,0.01l0-0.02C304.19,229.25,308.83,224.54,310.24,222.4z"/>
		<g>
			<g>
				<path class="st11" d="M272.84,200.51c-0.1-5.29,2.29-10.57,6.32-13.98"/>
				<path class="st11" d="M269.07,196.04c0.38-3.73,2.32-7.27,5.27-9.59"/>
			</g>
			<g>
				<path class="st11" d="M306.64,200.51c0.1-5.29-2.29-10.57-6.32-13.98"/>
				<path class="st11" d="M310.4,196.04c-0.38-3.73-2.32-7.27-5.27-9.59"/>
			</g>
		</g>
	</g>
	<g>
		<rect x="319.45" y="31.47" class="st12" width="162.09" height="60.83"/>
		<rect x="319.45" y="31.47" class="st13" width="66.72" height="60.83"/>
		<circle class="st9" cx="352.81" cy="61.88" r="19.8"/>
		<path class="st7" d="M352.81,75.29V59.14c0-0.23-0.29-0.34-0.44-0.16l-11.82,13.83"/>
		<g>
			<rect x="395.59" y="42.08" class="st14" width="72.5" height="9.24"/>
			<rect x="395.59" y="72.45" class="st14" width="37.9" height="9.24"/>
			<rect x="395.59" y="57.27" class="st14" width="61.97" height="9.24"/>
		</g>
	</g>
	<g>
		<path class="st4" d="M327.43,165.29h-61.06c-2.17,0-3.93-1.76-3.93-3.93V81.1c0-2.17,1.76-3.93,3.93-3.93h61.06
			c2.17,0,3.93,1.76,3.93,3.93v80.26C331.37,163.53,329.6,165.29,327.43,165.29z"/>
		<path class="st15" d="M301.37,72.48c0.39-1.3,0.42-2.75-1.34-4.59c-0.83-0.86-1.94-1.43-3.13-1.43c-2.59,0-4.68,2.1-4.68,4.69
			c0,0.47,0.09,0.91,0.22,1.34h-8.11c-1.84,0-3.33,1.49-3.33,3.33v7.45h31.82v-7.45c0-1.84-1.49-3.33-3.33-3.33H301.37z"/>
		<g>
			<line class="st16" x1="274.53" y1="97.34" x2="319.27" y2="97.34"/>
			<line class="st16" x1="274.53" y1="104.54" x2="319.27" y2="104.54"/>
			<line class="st16" x1="274.53" y1="111.75" x2="319.27" y2="111.75"/>
			<line class="st16" x1="274.53" y1="118.95" x2="319.27" y2="118.95"/>
			<line class="st16" x1="274.53" y1="126.16" x2="319.27" y2="126.16"/>
			<line class="st16" x1="274.53" y1="133.36" x2="319.27" y2="133.36"/>
			<line class="st16" x1="274.53" y1="140.57" x2="319.27" y2="140.57"/>
			<line class="st16" x1="274.53" y1="147.77" x2="319.27" y2="147.77"/>
		</g>
	</g>
	<g>
		<circle class="st17" cx="58.77" cy="108.98" r="49.65"/>
		<path class="st5" d="M29.6,68.8c-21.09,15.32-26.57,44.13-13.22,66l42.39-25.83l16.89-46.69C60.71,56.89,43.43,58.76,29.6,68.8z"
			/>
		<path class="st18" d="M16.38,134.8l42.39-25.83L41.19,62.55c-4.03,1.53-7.93,3.6-11.59,6.25C8.5,84.12,3.03,112.93,16.38,134.8z"
			/>
	</g>
	<g>
		<path class="st18" d="M451.23,417.99h-22.58c-5.66,0-10.38-4.34-10.85-9.99l-5.34-64.74h54.94l-5.34,64.74
			C461.61,413.65,456.89,417.99,451.23,417.99z"/>
		<path class="st5" d="M469.55,346.07h-59.22l0.87-3.34c0.28-1.06,1.24-1.8,2.33-1.8h52.8c1.1,0,2.06,0.74,2.33,1.8L469.55,346.07z"
			/>
		<polygon class="st15" points="464.37,396.53 466.99,364.73 412.89,364.73 415.51,396.53 		"/>
		<rect x="415.44" y="337.9" class="st5" width="49" height="4.28"/>
	</g>
	<path class="st12" d="M246.13,112.42c0,0-8.81-43.53-33.13-53.08c-21.15-8.3-67.22-12.61-81.17,34.14l57.05-26.17l26.09,8.33
		l13.95,17.94L246.13,112.42z"/>
	<path class="st4" d="M118,193.81"/>
	<g>
		<g>
			<path class="st19" d="M154.45,151.26l-25.03,41.15c0,0-56.8,13.26-61.62,17.08c-4.81,3.82-12.52,184.49-12.52,184.49H241.1
				L220.88,205.6c0,0-35.62-3.89-36.59-9.65c-0.96-5.76,3.85-31.8,3.85-31.8L154.45,151.26z"/>
			<path class="st20" d="M188.36,199.11c-2.34-0.97-3.88-2.03-4.07-3.16c-0.96-5.76,3.85-31.8,3.85-31.8l-33.7-12.89l-14.09,23.17
				c0.9,4.46,2.26,8.76,4.01,12.63C153.72,208.46,172.48,208.39,188.36,199.11z"/>
			<path class="st21" d="M219.74,205.59c0,0-12.42-1.36-22.79-3.66c-12.34,12.07-28.36,18.88-47.73,16.11
				c-14.55-1.82-24.68-11.36-29.97-23.5c-16.23,3.91-48.99,12.07-52.6,14.93c-4.81,3.82-12.52,184.49-12.52,184.49h185.82
				L219.74,205.59z"/>
			<path class="st22" d="M63.2,247.86c-4,54.08-7.92,146.11-7.92,146.11h72.3c-9.01-41.5-9.1-84.4-6.01-127.18
				c-8.54,5.4-16.37,14.69-26.21,15.26C78.07,282.96,72.37,261.52,63.2,247.86z"/>
			<path class="st23" d="M67.8,209.49c-1.38,1.09-2.99,16.68-4.6,38.37c9.17,13.66,14.87,35.11,32.16,34.2
				c9.84-0.58,17.67-9.87,26.21-15.26c1.8-24.9,4.67-49.77,7.48-74.3C124.2,193.63,72.38,205.85,67.8,209.49z"/>
			<path class="st23" d="M187.77,198.86c-4.03,30.09-8.48,59.86-13.12,89.98c10.79-0.19,19.86-8.37,27.71-17.79c3-2,7-4,10-3
				c5.3,2.44,10.59,5.06,15.96,6.89l-7.44-69.34C220.88,205.6,196.91,202.98,187.77,198.86z"/>
			<path class="st22" d="M202.36,271.05c-7.84,9.41-16.92,17.59-27.71,17.79c-4,26-8.15,52.26-12.29,79.21
				c-1.52,8.75-2.9,17.35-3.96,25.92h82.7l-12.78-119.03c-5.37-1.83-10.66-4.44-15.96-6.89
				C209.36,267.05,205.36,269.05,202.36,271.05z"/>
			<path class="st24" d="M216.32,205.04c0,0,17.33,0.78,22.5,7.37c12.35,15.73,50.92,125.39,50.92,125.39l45.62-73.18
				c0,0,7.21-27.02,10.82-31.9c3.61-4.88,13.52-2.68,13.52-2.68s45.07-41.66,49.58-39.51c4.51,2.15-23.44,37.29-23.44,37.29
				s19.83,16.04,18.03,27.86c-1.8,11.82-18.93,21.77-18.93,21.77s-28.85,102.72-65.8,136.08c-36.96,33.35-74.95,18.03-78.04-5.41
				C238.01,384.67,216.32,205.04,216.32,205.04z"/>
			<path class="st23" d="M252.36,275.05c4.34-2.34,7.78-5.46,10.82-8.91c-9.55-24.4-19.22-47.2-24.36-53.74
				c-5.17-6.59-22.5-7.37-22.5-7.37s3.72,30.78,8.29,68.52C233.61,277.17,242.75,279.17,252.36,275.05z"/>
			<path class="st22" d="M322.04,285.98l-32.3,51.81c0,0-13.16-37.4-26.56-71.65c-3.04,3.45-6.48,6.57-10.82,8.91
				c-9.61,4.12-18.75,2.11-27.75-1.5c6.48,53.43,14.67,120.81,16.48,134.55c3.09,23.44,41.08,38.76,78.04,5.41
				c22.62-20.42,42.21-66.83,53.99-99.76C355.73,305.5,338.92,295.8,322.04,285.98z"/>
			<path class="st21" d="M322.04,285.98c16.88,9.82,33.69,19.52,51.09,27.77c2.52-7.03,4.68-13.44,6.43-18.85
				c-16.93-6.72-34.15-12.43-50.52-20.15L322.04,285.98z"/>
			<path class="st19" d="M403.87,255.67c1.8-11.82-18.03-27.86-18.03-27.86s27.94-35.14,23.44-37.29
				c-4.51-2.15-49.58,39.51-49.58,39.51s-9.92-2.2-13.52,2.68c-3.61,4.88-10.82,31.9-10.82,31.9l-6.32,10.14
				c16.38,7.72,33.59,13.43,50.52,20.15c3.46-10.66,5.37-17.46,5.37-17.46S402.07,267.48,403.87,255.67z"/>
			<path class="st23" d="M44.72,225.77c-1.47,3.36-3.75,9.74-6.46,18.11c7.14-4.32,14.81-6.51,22.11,0.18
				c4.54,5.36,8.06,12.94,11.96,19.92l13.19-60.51C85.51,203.47,53.35,206.1,44.72,225.77z"/>
			<path class="st22" d="M38.25,243.88C25.06,284.53,1.46,372.26,8.62,389.83c8.63,21.19,149.78,42.96,149.78,42.96l24.43-15.5
				l-124.4-89.56l13.9-63.75c-3.9-6.98-7.42-14.56-11.96-19.92C53.06,237.36,45.39,239.56,38.25,243.88z"/>
			<path class="st19" d="M162.37,84.94c-2.43,2.58-4.25,5.66-5.37,9.02c-3.4,10.16-11.84,36.24-11.97,44.9
				c-0.17,10.85,6.52,37.48,19.32,42.01c12.8,4.53,27.27,1.65,37.13-7.41c9.86-9.06,36.19-42.42,38.26-53.13s-9.46-48.6-40-51.9
				C180.47,66.35,168.16,78.8,162.37,84.94z"/>
			<path class="st25" d="M215.64,135.03c-0.37-0.15-0.75-0.29-1.11-0.41c-4.52-1.55-8.99-3.3-13.2-5.56
				c-9.21-4.93-17.19-12.25-27.08-15.6c-2.98-1.01-6.21-1.63-9.27-0.89c-8.84,2.15-8.1,13.2-1.54,17.47
				c7.4,4.83,15.82,8.72,23.72,12.7c4.93,2.49,10.8,5.84,16.62,6.81c2.44,0.96,4.91,1.8,7.41,2.42c4.89,1.2,10.29-1.51,11.87-6.38
				C224.77,140.32,220.03,136.8,215.64,135.03z"/>
			<path class="st26" d="M214.86,115.82c5.63,1.01,9.65,5.3,13.2,10.45"/>
			<path class="st27" d="M190.52,141.9c0.38-2.81,0.9-5.6,1.55-8.36c0.51-2.16,1.1-4.31,2.04-6.33c2.76-5.96,8.69-10.18,15.12-11.34
				"/>
			<path class="st28" d="M179.1,113.1c0,1.98-1.61,3.59-3.59,3.59s-3.59-1.61-3.59-3.59c0-1.98,1.61-3.59,3.59-3.59
				S179.1,111.11,179.1,113.1z"/>
			<path class="st28" d="M219.91,134.54c0,1.98-1.61,3.59-3.59,3.59s-3.59-1.61-3.59-3.59s1.61-3.59,3.59-3.59
				S219.91,132.56,219.91,134.54z"/>
			<g>
				<g>
					<path class="st28" d="M181.78,115.82c0.35-3.37-1.32-6.43-4.14-8.29c-1.72-1.13-3.77-1.6-5.57-2.58
						c-1.93-1.04-3.79-2.38-5.66-3.53c-0.49-0.3-1.3,0.08-1.23,0.71c0.36,3.51,2.28,5.72,5.64,6.98c1.63,0.61,3.22,0.53,4.91,0.74
						c3.21,0.4,4.92,3.06,5.37,6.06C181.15,116.33,181.74,116.18,181.78,115.82L181.78,115.82z"/>
				</g>
			</g>
			<g>
				<g>
					<path class="st28" d="M210.01,132.07c3.45-1.69,6.38-0.86,8.94,1.97c1.06,1.17,2.11,2.16,3.51,2.91
						c2.66,1.41,5.38,1.62,7.94-0.05c0.49-0.32,0.58-1.12,0-1.42c-2.25-1.15-4.72-1.69-6.93-2.87c-1.71-0.91-3.17-2.15-5.04-2.76
						c-3.17-1.04-6.33-0.49-8.85,1.68C209.27,131.8,209.67,132.24,210.01,132.07L210.01,132.07z"/>
				</g>
			</g>
			<path class="st26" d="M189.43,101.41c-1.31-2.57-4.08-4.75-7.54-5.93c-3.47-1.18-7.59-1.36-11.23-0.48"/>
			<g>
				<g>
					<path class="st29" d="M385.51,226.99c-4.52,4.16-8.61,8.78-12.2,13.76c-1.34,1.87-2.64,3.85-3.08,6.11
						c-0.46,2.38,0.09,4.84,0.82,7.15c1.24,3.93,3.01,7.69,5.24,11.16c1.75,2.71,3.86,5.31,6.7,6.86c2.84,1.54,6.52,1.85,9.22,0.07"
						/>
					<path class="st30" d="M372.11,255.79c7.24-6.49,14.49-12.97,21.73-19.46"/>
					<path class="st31" d="M377.22,266.65c9.4-5.29,19.08-10.81,25.64-19.38"/>
				</g>
			</g>
			<path class="st29" d="M359.03,229.75c9.33,2.07,18.66,4.13,27.99,6.2c0.6,0.13,1.25,0.29,1.66,0.76
				c0.41,0.46,0.19,2.32-0.34,2.64c-8.49,5.24-18.8,6.01-28.62,4.2c5.47,7.89,5.22,19.3-0.59,26.95"/>
			<line class="st32" x1="239.96" y1="393.96" x2="223" y2="260.27"/>
			<polyline class="st32" points="76.71,243.85 58.42,327.73 158.43,399.72 			"/>
			<g>
				<g>
					<linearGradient id="SVGID_1_" gradientUnits="userSpaceOnUse" x1="206.3064" y1="295.8773" x2="266.7807" y2="446.0201">
						<stop  offset="0" style="stop-color:#FFFFFF;stop-opacity:0"/>
						<stop  offset="1" style="stop-color:#61C4DB"/>
					</linearGradient>
					<path class="st33" d="M343.72,442.15l-267.95-2.97c0,0-66.51-130.42,71.99-213.96c138.5-83.54,264.85,48.18,253.54,108.46
						L343.72,442.15z"/>
					<g>
						<path class="st34" d="M338,442.33H78.92c-1.74,0-3.15-1.41-3.15-3.15l0,0c0-1.74,1.41-3.15,3.15-3.15H344.3l0,0
							C344.3,439.51,341.48,442.33,338,442.33z"/>
					</g>
					<g>
						<path class="st34" d="M192.63,325.92h204.43c3.73,0,6.07,4.29,4.23,7.76l-57.57,108.47H123.46l58-109.27
							C183.75,328.58,188.01,325.92,192.63,325.92z"/>
					</g>
				</g>
			</g>
			<path class="st25" d="M188.34,156.66c-1.08,0.59-2.41,0.96-3.37,1.14c-3.38,0.62-6.89-0.56-9.24-3.06
				c-2.56-2.73-6.12-9.22-0.58-10.89c1.16-0.35,2.47-0.38,3.55,0.17c2.03,1.04,2.57,3.65,2.87,5.91c1.37-0.71,2.87-1.42,4.39-1.16
				c1.24,0.22,2.3,1.08,2.98,2.15c0.84,1.31,1.89,3.18,0.84,4.6C189.43,155.96,188.92,156.34,188.34,156.66z"/>
			<path class="st27" d="M191.69,154.72c-7.79-0.16-15.43-3.94-20.27-10.05"/>
		</g>
		<g>
			<path class="st12" d="M219.85,75.56c0,0-16.93-0.11-34.53,6.23c-18.02,6.49-31.54,21.65-36.31,40.2h0
				c-2.99,11.66-3.36,23.88-0.71,35.62c2.02,8.92,5.79,17.81,12.83,21.79c16.56,9.35,34.72-1.6,38.19-4.27
				c3.47-2.67,17.85-17.33,34.45-42.47l-20.61-60.58l7.26,1.29c0,0,27.24,21.37,26.17,46.74c-0.5,11.86-2.36,29.13-4.19,44.17
				c-1.94,15.88-0.62,31.94,3.21,47.47c1.18,4.77,1.9,10.57,1.52,17.33c0,0-36.08,40.22-88.43,38.89
				c-52.35-1.34-82.81-63.01-82.81-63.01L118,193.81c0,0-1.52-59.16,10.13-94.96C142.69,54.11,191.27,61.14,219.85,75.56z"/>
			<g>
				
					<ellipse transform="matrix(0.9471 -0.3208 0.3208 0.9471 -24.8673 60.296)" class="st35" cx="170.55" cy="105.61" rx="25.52" ry="25.52"/>
				
					<ellipse transform="matrix(0.2682 -0.9634 0.9634 0.2682 33.0961 316.0905)" class="st35" cx="224.61" cy="136.26" rx="25.52" ry="25.52"/>
				<path class="st35" d="M193.15,117.56c4,0.72,7.88,2.15,9.36,5.94"/>
			</g>
			<path class="st20" d="M156.49,175.47c0,0,9.37,23.82,20.22,26.89c10.85,3.06,19.48-25.26,19.48-25.26
				S176.54,189.53,156.49,175.47z"/>
			<path class="st31" d="M118,193.81c0,0,29.03,21.65,64.72,17.97"/>
			<path class="st31" d="M241.51,196.25c-13.08,16.93-47.19,48.17-109.15,23.83"/>
			<path class="st31" d="M89.27,200.84c0,0,25.69,63.57,119.08,55.51"/>
		</g>
	</g>
</g>
</svg>
