<?xml version="1.0" encoding="utf-8"?>
<!-- Generator: Adobe Illustrator 27.9.0, SVG Export Plug-In . SVG Version: 6.00 Build 0)  -->
<svg version="1.1" id="Layer_5" xmlns="http://www.w3.org/2000/svg" xmlns:xlink="http://www.w3.org/1999/xlink" x="0px" y="0px"
	 viewBox="0 0 657.3 757.7" style="enable-background:new 0 0 657.3 757.7;" xml:space="preserve">
<style type="text/css">
	.st0{fill:#FFFFFF;stroke:#000000;stroke-miterlimit:10;}
</style>
<path class="st0" d="M19.9,271.8h132.5v425.6H19.9V271.8z M86.2,60.3c42.4,0,76.7,34.4,76.7,76.6s-34.4,76.8-76.7,76.8
	S9.4,179.3,9.4,136.9S43.8,60.3,86.2,60.3"/>
<path class="st0" d="M235.4,271.8h126.9V330h1.7c17.7-33.5,60.8-68.8,125.3-68.8c134,0,158.7,88.1,158.7,202.7v233.5H515.7V490.5
	c0-49.4-1-112.9-68.8-112.9s-79.3,53.7-79.3,109.3v210.6H235.4V271.8L235.4,271.8z"/>
</svg>
