<?xml version="1.0" encoding="utf-8"?>
<!-- Generator: Adobe Illustrator 27.9.0, SVG Export Plug-In . SVG Version: 6.00 Build 0)  -->
<svg version="1.1" id="Layer_3" xmlns="http://www.w3.org/2000/svg" xmlns:xlink="http://www.w3.org/1999/xlink" x="0px" y="0px"
	 viewBox="0 0 641.4 757.7" style="enable-background:new 0 0 641.4 757.7;" xml:space="preserve">
<style type="text/css">
	.st0{fill:#FFFFFF;stroke:#000000;stroke-miterlimit:10;}
</style>
<path class="st0" d="M625,224.6c-4.2-40.6-19.7-76.6-49.9-105.4c-31.8-30.3-70.6-43.7-113.2-46c-72.6-3.9-245-6.5-305.5,3.4
	C87.2,87.9,41.9,128.2,22.8,196.5C8,249.1,11,491.3,19.6,543.2c11.7,71,53.7,116.6,124,134.7c48.7,12.6,288.1,11,341.9,2.3
	c71.1-11.5,116.8-53.3,135.3-123.5C634.9,502.8,630,273.3,625,224.6L625,224.6z M568.2,533.2c-8.3,53.9-44.1,87.4-98.3,93.3
	c-49.8,5.5-272.3,8.5-318.5-4.5c-44.2-12.3-69.5-42.7-76.8-87.3c-7-42.5-8.7-254.8-0.1-311.6c8.1-53.5,43.9-86.9,97.9-92.9
	c54.7-6.1,251.6-6.8,304,1.3c53.8,8.3,87.2,44.2,93.1,98.5C574.9,280.7,576.5,478.8,568.2,533.2L568.2,533.2z M321.3,220.1
	c-87.5,0-158.4,70.8-158.4,158.3c0,87.5,70.8,158.4,158.3,158.4c87.5,0,158.4-70.8,158.4-158.3C479.5,291.1,408.8,220.1,321.3,220.1
	z M320.2,480.8c-56.6-0.5-102-46.7-101.5-103.3c0.5-56.6,46.7-102,103.3-101.5s102,46.7,101.5,103.3S376.8,481.3,320.2,480.8z
	 M522.9,214.1c0,20.5-16.7,37-37.1,37c-20.5,0-37-16.7-37-37.1c0-20.5,16.7-37,37.1-37C506.3,177,522.9,193.7,522.9,214.1z"/>
</svg>
