<?xml version="1.0" encoding="utf-8"?>
<!-- Generator: Adobe Illustrator 27.9.0, SVG Export Plug-In . SVG Version: 6.00 Build 0)  -->
<svg version="1.1" id="Layer_2_00000088117631031663453490000007096292306156145077_"
	 xmlns="http://www.w3.org/2000/svg" xmlns:xlink="http://www.w3.org/1999/xlink" x="0px" y="0px" viewBox="0 0 573.1 475.4"
	 style="enable-background:new 0 0 573.1 475.4;" xml:space="preserve">
<style type="text/css">
	.st0{fill:#FFFFFF;stroke:#000000;stroke-miterlimit:10;}
</style>
<path class="st0" d="M501.8,7.5H71.3C35.1,7.5,5.6,37,5.6,73.2v322.1c0,36.2,29.5,65.7,65.7,65.7h430.5c36.2,0,65.7-29.5,65.7-65.7
	V73.2C567.6,37,538.1,7.5,501.8,7.5z M458.1,71.7L286.9,194.5L120.7,71.7H458.1L458.1,71.7z M501.8,396.8H71.3
	c-0.8,0-1.5-0.7-1.5-1.5V113.9L286.3,274l217-155.7v277C503.3,396.2,502.6,396.9,501.8,396.8L501.8,396.8z"/>
</svg>
