<?xml version="1.0" encoding="utf-8"?>
<!-- Generator: Adobe Illustrator 27.9.0, SVG Export Plug-In . SVG Version: 6.00 Build 0)  -->
<svg version="1.1" id="Layer_1" xmlns="http://www.w3.org/2000/svg" xmlns:xlink="http://www.w3.org/1999/xlink" x="0px" y="0px"
	 viewBox="0 0 204 204" style="enable-background:new 0 0 204 204;" xml:space="preserve">
<style type="text/css">
	.st0{fill:url(#SVGID_1_);}
	.st1{fill:#FFFFFF;stroke:#000000;stroke-miterlimit:10;}
</style>
<linearGradient id="SVGID_1_" gradientUnits="userSpaceOnUse" x1="-12.4729" y1="104.4204" x2="228.0859" y2="103.5369" gradientTransform="matrix(1 0 0 -1 0 206)">
	<stop  offset="0" style="stop-color:#AA367C"/>
	<stop  offset="1" style="stop-color:#4A2FBD"/>
</linearGradient>
<path class="st0" d="M187.6,69.9c5.5-2,11.6,0.7,13.1,6.3c5.5,21.2,4.1,43.8-4.3,64.3c-9.7,23.8-28,43-51.3,53.9
	c-23.3,10.9-49.7,12.6-74.2,4.8c-24.5-7.8-45.1-24.5-57.7-46.9C0.6,130-3.2,103.7,2.7,78.7c5.9-25,20.9-46.8,42.2-61.2
	S92.1-2.7,117.4,1.2c21.9,3.3,42,13.7,57.4,29.4c4.1,4.2,3.3,10.8-1.3,14.5c-4.6,3.6-11.1,2.8-15.3-1.2c-12-11.6-27.3-19.2-44-21.8
	C94.1,18.9,73.6,23.6,56.7,35C39.8,46.4,27.9,63.7,23.2,83.5c-4.7,19.8-1.7,40.7,8.4,58.4c10,17.7,26.4,31,45.8,37.2
	c19.4,6.2,40.4,4.8,58.9-3.8c18.4-8.6,33-23.9,40.7-42.7c6.4-15.6,7.7-32.7,3.9-48.9C179.5,78,182.2,71.9,187.6,69.9z"/>
<path class="st1" d="M74.5,89.6c-4.6,0-8.5,2.8-8.5,7.2c0,2.1,1.1,3.7,2.8,4.7c-1.9,1-3.9,3-3.9,5.9c0,5,4.6,8,9.6,8
	c5,0,9.6-3,9.6-8c0-2.9-2-4.9-3.9-5.9c1.7-1,2.8-2.6,2.8-4.7C83,92.5,79.1,89.6,74.5,89.6z M77.6,107c0,1.7-1.3,2.9-3.1,2.9
	s-3.1-1.2-3.1-2.9c0-1.6,1.3-2.9,3.1-2.9S77.6,105.4,77.6,107z M74.5,94.9c1.4,0,2.6,1,2.6,2.4s-1.1,2.4-2.6,2.4
	c-1.5,0-2.6-1-2.6-2.4S73.1,94.9,74.5,94.9z M108.4,102.5c0-6.8-3.9-12.9-10.9-12.9c-7.1,0-11,6-11,12.9s3.9,12.9,11,12.9
	C104.5,115.4,108.4,109.3,108.4,102.5z M101.7,102.5c0,3.3-1.3,6.6-4.2,6.6c-3,0-4.3-3.3-4.3-6.6s1.3-6.6,4.3-6.6
	C100.4,95.9,101.7,99.2,101.7,102.5z M123.2,95.9c0-3.4-2.8-6.1-6.3-6.1c-3.6,0-6.3,2.7-6.3,6.1s2.8,6.1,6.3,6.1
	C120.5,102,123.2,99.3,123.2,95.9z M119,95.9c0,1.3-0.9,2.1-2.1,2.1c-1.2,0-2.1-0.9-2.1-2.1s0.9-2.1,2.1-2.1
	C118.1,93.8,119,94.6,119,95.9z M136.7,90.1h-5.5l-18.4,24.7h5.5L136.7,90.1z M126.4,109.1c0,3.4,2.8,6.1,6.3,6.1s6.3-2.7,6.3-6.1
	c0-3.4-2.8-6.1-6.3-6.1S126.4,105.7,126.4,109.1z M130.6,109.1c0-1.3,0.9-2.1,2.1-2.1c1.2,0,2.1,0.9,2.1,2.1c0,1.3-0.9,2.1-2.1,2.1
	C131.5,111.2,130.6,110.3,130.6,109.1z"/>
</svg>
