<?xml version="1.0" encoding="utf-8"?>
<!-- Generator: Adobe Illustrator 27.9.0, SVG Export Plug-In . SVG Version: 6.00 Build 0)  -->
<svg version="1.1" id="Layer_1" xmlns="http://www.w3.org/2000/svg" xmlns:xlink="http://www.w3.org/1999/xlink" x="0px" y="0px"
	 viewBox="0 0 204 204" style="enable-background:new 0 0 204 204;" xml:space="preserve">
<style type="text/css">
	.st0{fill:url(#SVGID_1_);}
	.st1{fill:#FFFFFF;stroke:#000000;stroke-miterlimit:10;}
</style>
<linearGradient id="SVGID_1_" gradientUnits="userSpaceOnUse" x1="-12.2411" y1="104.4196" x2="223.8472" y2="103.5525" gradientTransform="matrix(1 0 0 -1 0 206)">
	<stop  offset="0" style="stop-color:#AA367C"/>
	<stop  offset="1" style="stop-color:#4A2FBD"/>
</linearGradient>
<path class="st0" d="M190.4,90.3c5.5-2,7.3,6.1,8.8,11.7c2.3,21,0.6,20.4-5.2,38.1c-9.7,23.8-25.5,43.4-48.8,54.3
	c-23.3,10.9-49.7,12.6-74.2,4.8c-24.5-7.8-45.1-24.5-57.7-46.9C0.6,130-3.2,103.7,2.7,78.7c5.9-25,20.9-46.8,42.2-61.2
	S92.1-2.7,117.4,1.2c21.9,3.3,42,13.7,57.4,29.4c4.1,4.2,3.3,10.8-1.3,14.5c-4.6,3.6-11.1,2.8-15.3-1.2c-12-11.6-27.3-19.2-44-21.8
	C94.1,18.9,73.6,23.6,56.7,35C39.8,46.4,27.9,63.7,23.2,83.5c-4.7,19.8-1.7,40.7,8.4,58.4c10,17.7,26.4,31,45.8,37.2
	c19.4,6.2,40.4,4.8,58.9-3.8c18.4-8.6,23.8-14.1,35.3-32c0,0,13.8-22.2,10-38.4C180.3,99.2,185,92.3,190.4,90.3z"/>
<path class="st1" d="M72.6,89.1c-4.6,0-8.5,2.8-8.5,7.2c0,2.1,1.1,3.7,2.8,4.7c-1.9,1-3.9,3-3.9,5.9c0,5,4.6,8,9.6,8
	c5,0,9.6-3,9.6-8c0-2.9-2-4.9-3.9-5.9c1.7-1,2.8-2.6,2.8-4.7C81.1,92,77.2,89.1,72.6,89.1z M75.7,106.5c0,1.7-1.3,2.9-3.1,2.9
	s-3.1-1.2-3.1-2.9c0-1.6,1.3-2.9,3.1-2.9S75.7,104.9,75.7,106.5z M72.6,94.4c1.4,0,2.6,1,2.6,2.4s-1.1,2.4-2.6,2.4
	c-1.5,0-2.6-1-2.6-2.4S71.2,94.4,72.6,94.4z M106.5,102c0-6.8-3.9-12.9-10.9-12.9c-7.1,0-11,6-11,12.9s3.9,12.9,11,12.9
	C102.6,114.9,106.5,108.8,106.5,102z M99.8,102c0,3.3-1.3,6.6-4.2,6.6c-3,0-4.3-3.3-4.3-6.6s1.3-6.6,4.3-6.6
	C98.5,95.4,99.8,98.7,99.8,102z M121.3,95.4c0-3.4-2.8-6.1-6.3-6.1c-3.6,0-6.3,2.7-6.3,6.1s2.8,6.1,6.3,6.1
	C118.6,101.5,121.3,98.8,121.3,95.4z M117.1,95.4c0,1.3-0.9,2.1-2.1,2.1c-1.2,0-2.1-0.9-2.1-2.1s0.9-2.1,2.1-2.1
	C116.2,93.3,117.1,94.1,117.1,95.4z M134.8,89.6h-5.5L111,114.3h5.5L134.8,89.6z M124.5,108.6c0,3.4,2.8,6.1,6.3,6.1
	s6.3-2.7,6.3-6.1c0-3.4-2.8-6.1-6.3-6.1S124.5,105.2,124.5,108.6z M128.7,108.6c0-1.3,0.9-2.1,2.1-2.1s2.1,0.9,2.1,2.1
	c0,1.3-0.9,2.1-2.1,2.1S128.7,109.8,128.7,108.6z"/>
</svg>
