<?xml version="1.0" encoding="UTF-8"?>
<svg id="Layer_4" data-name="Layer 4" xmlns="http://www.w3.org/2000/svg" viewBox="0 0 657.33 757.71">
  <defs>
    <style>
      .cls-1 {
        fill: #fff;
        fill-rule: evenodd;
      }

      .cls-1, .cls-2 {
        stroke-width: 0px;
      }

      .cls-2 {
        fill: #696969;
      }
    </style>
  </defs>
  <circle class="cls-2" cx="306.01" cy="373.34" r="102.03"/>
  <path class="cls-1" d="m252.15,427.51c.63-2.44,1.18-4.56,1.75-6.68,1.86-6.78,3.76-13.56,5.53-20.35.26-1.02.15-2.36-.34-3.27-17.24-32.85.55-72.62,36.72-81.11,32.85-7.7,62.37,14.47,67.76,44.12,5.61,30.92-14.62,60.3-45.3,65.67-12.19,2.11-23.85.32-34.99-5.1-.99-.49-2.39-.63-3.45-.37-14.84,3.72-24.7,6.52-27.7,7.1Zm13.05-12.87c5.58-1.45,10.72-2.74,15.81-4.17,1.44-.39,2.55-.18,3.83.56,9.64,5.56,19.98,7.64,31.02,5.86,25.43-4.08,42.85-27.87,38.96-53.2-4.04-26.26-28.66-43.88-54.68-39.11-31.48,5.78-48.18,40.87-32.53,68.66,1.73,3.08,2.21,5.62,1.04,8.89-1.39,3.94-2.25,8.05-3.46,12.52Z"/>
  <path class="cls-1" d="m323.1,397.45c-10.94-.39-28.36-9.03-40.29-29.75-4.24-7.37-3.63-15.77,2.58-21.54,2.1-1.96,4.73-1.48,7.2-1.06.61.09,1.24,1.02,1.54,1.7,1.59,3.62,3.16,7.23,4.54,10.94.73,1.95-.61,3.79-3.44,7.06-.9,1.03-1.09,1.99-.38,3.18,4.59,7.77,11,13.39,19.44,16.69,1.24.48,2.17.18,2.95-.79,4.47-5.46,4.93-7.05,7.28-5.93,11.32,5.41,12.2,5.63,12.25,6.92.38,9.54-8.36,12.97-13.66,12.58Z"/>
</svg>